<svg width="32" height="35" viewBox="0 0 32 35" fill="none" xmlns="http://www.w3.org/2000/svg">
<path d="M16 17.8615L23.5 13.5238M16 17.8615V33.0735M16 17.8615L2.03116 9.78246M23.5 13.5238L8.5 4.84838M23.5 13.5238L30.0885 9.71323M8.5 4.84838L12.8651 2.32376C14.391 1.44125 15.154 1 16 1C16.846 1 17.609 1.44125 19.1349 2.32376L28.1349 7.529C29.5349 8.33873 30.2349 8.7436 30.6175 9.38828C31 10.033 31 10.8079 31 12.3577V22.6423C31 24.1921 31 24.967 30.6175 25.6117C30.2349 26.2564 29.5349 26.6613 28.1349 27.471L19.1349 32.6762C17.609 33.5587 16.846 34 16 34C15.154 34 14.391 33.5587 12.8651 32.6762L3.86514 27.471C2.46509 26.6613 1.76506 26.2564 1.38253 25.6117C1 24.967 1 24.1921 1 22.6423V12.3577C1 10.8079 1 10.033 1.38253 9.38828C1.76506 8.7436 2.46509 8.33873 3.86514 7.529L8.5 4.84838Z" stroke="#B26262" stroke-width="2" stroke-linecap="round"/>
</svg>
