<svg width="32" height="35" viewBox="0 0 32 35" fill="none" xmlns="http://www.w3.org/2000/svg">
<path d="M12.25 33C11.6977 33 11.25 33.4477 11.25 34C11.25 34.5523 11.6977 35 12.25 35V33ZM19.75 35C20.3023 35 20.75 34.5523 20.75 34C20.75 33.4477 20.3023 33 19.75 33V35ZM15 27.1705V34H17V27.1705H15ZM12.25 35H19.75V33H12.25V35ZM7.9868 3.07804C13.2485 1.64065 18.7515 1.64065 24.0132 3.07804L24.5403 1.14874C18.9335 -0.382913 13.0665 -0.382913 7.45975 1.14874L7.9868 3.07804ZM27 4.52517C27 2.98782 26.038 1.55791 24.5403 1.14874L24.0132 3.07804C24.541 3.22222 25 3.78103 25 4.52517H27ZM7 4.52517C7 3.78103 7.45903 3.22222 7.9868 3.07804L7.45975 1.14874C5.96196 1.55791 5 2.98782 5 4.52517H7ZM30 10.0966V14.1944H32V10.0966H30ZM30 14.1944C30 15.6133 28.967 16.6091 27.875 16.6091V18.6091C30.2348 18.6091 32 16.5473 32 14.1944H30ZM27.875 7.68187C28.967 7.68187 30 8.67769 30 10.0966H32C32 7.74375 30.2348 5.68187 27.875 5.68187V7.68187ZM2 14.1944V10.0966H0V14.1944H2ZM4.125 16.6091C3.03301 16.6091 2 15.6133 2 14.1944H0C0 16.5473 1.76521 18.6091 4.125 18.6091V16.6091ZM4.125 5.68187C1.76521 5.68187 0 7.74375 0 10.0966H2C2 8.67769 3.03301 7.68187 4.125 7.68187V5.68187ZM27.875 5.68187C26.9238 5.68187 26.0537 6.02681 25.3656 6.5916L26.6344 8.13755C26.9909 7.84498 27.4192 7.68187 27.875 7.68187V5.68187ZM25 4.52517V7.36458H27V4.52517H25ZM25 7.36458V16.2432H27V7.36458H25ZM27.875 16.6091C27.4139 16.6091 26.9808 16.4422 26.6218 16.143L25.3414 17.6794C26.0332 18.256 26.9125 18.6091 27.875 18.6091V16.6091ZM25 16.2432C25 16.4491 24.9943 16.6535 24.9831 16.8561L26.9801 16.9663C26.9933 16.727 27 16.4859 27 16.2432H25ZM24.9831 16.8561C24.692 22.1315 20.7087 26.1705 16 26.1705V28.1705C21.9265 28.1705 26.6395 23.1387 26.9801 16.9663L24.9831 16.8561ZM5.37816 16.143C5.01918 16.4422 4.58607 16.6091 4.125 16.6091V18.6091C5.08748 18.6091 5.96678 18.256 6.6586 17.6794L5.37816 16.143ZM5 16.2432C5 16.4859 5.00669 16.727 5.0199 16.9663L7.01686 16.8561C7.00568 16.6535 7 16.4491 7 16.2432H5ZM5.0199 16.9663C5.36053 23.1387 10.0735 28.1705 16 28.1705V26.1705C11.2913 26.1705 7.30799 22.1315 7.01686 16.8561L5.0199 16.9663ZM4.125 7.68187C4.58083 7.68187 5.0091 7.84498 5.36556 8.13755L6.63444 6.5916C5.94632 6.02681 5.07618 5.68187 4.125 5.68187V7.68187ZM7 16.2432V7.36458H5V16.2432H7ZM7 7.36458V4.52517H5V7.36458H7Z" fill="#4DC153"/>
</svg>
