<svg width="32" height="40" viewBox="0 0 32 40" fill="none" xmlns="http://www.w3.org/2000/svg">
<path d="M18.0595 38.0294L18.4858 38.934L18.0595 38.0294ZM17.4063 38.3373L16.98 37.4327L17.4063 38.3373ZM14.5937 38.3373L15.02 37.4327H15.02L14.5937 38.3373ZM13.9405 38.0294L13.5142 38.934L13.9405 38.0294ZM3.27924 4.87441L2.97611 3.92146H2.97611L3.27924 4.87441ZM14.9459 1.16324L15.249 2.11619L14.9459 1.16324ZM17.0541 1.16324L17.3572 0.210291V0.210291L17.0541 1.16324ZM28.7208 4.87441L29.0239 3.92146L29.0239 3.92146L28.7208 4.87441ZM16.0279 1.00011L16.0359 0.000143528L16.0279 1.00011ZM16.0279 38.6505L16.0195 37.6505H16.0195L16.0279 38.6505ZM28.4962 28.1682L27.6128 27.6996L28.4962 28.1682ZM3.5038 28.1682L2.62041 28.6368H2.62041L3.5038 28.1682ZM11.6904 19.1905C11.2908 18.8092 10.6578 18.824 10.2766 19.2236C9.89527 19.6231 9.91007 20.2561 10.3096 20.6374L11.6904 19.1905ZM14.3333 23.095L13.6429 23.8184C14.0293 24.1872 14.6373 24.1872 15.0237 23.8184L14.3333 23.095ZM23.357 15.8659C23.7566 15.4846 23.7714 14.8516 23.3901 14.4521C23.0088 14.0525 22.3758 14.0377 21.9763 14.419L23.357 15.8659ZM17.6332 37.1248L16.98 37.4327L17.8326 39.2418L18.4858 38.934L17.6332 37.1248ZM15.02 37.4327L14.3668 37.1248L13.5142 38.934L14.1674 39.2418L15.02 37.4327ZM3.58237 5.82736L15.249 2.11619L14.6428 0.21029L2.97611 3.92146L3.58237 5.82736ZM16.751 2.11619L28.4176 5.82736L29.0239 3.92146L17.3572 0.210291L16.751 2.11619ZM15.0279 38.6505V39H17.0279V38.6505H15.0279ZM30 7.89218V14.7707H32V7.89218H30ZM30 14.7707V18.1583H32V14.7707H30ZM2 18.1583V14.7794H0V18.1583H2ZM2 14.7794V7.89218H0V14.7794H2ZM15.249 2.11619C15.4984 2.03686 15.759 1.99799 16.0199 2.00008L16.0359 0.000143528C15.5663 -0.00361037 15.0955 0.0662718 14.6428 0.21029L15.249 2.11619ZM16.0199 2.00008C16.2675 2.00206 16.5143 2.04091 16.751 2.11619L17.3572 0.210291C16.9275 0.0736068 16.4817 0.00370628 16.0359 0.000143528L16.0199 2.00008ZM29.3796 28.6368C31.1014 25.3911 32 21.8013 32 18.1583H30C30 21.4711 29.1831 24.7395 27.6128 27.6996L29.3796 28.6368ZM4.3872 27.6996C2.81689 24.7395 2 21.4711 2 18.1583H0C0 21.8013 0.898556 25.3911 2.62041 28.6368L4.3872 27.6996ZM16.98 37.4327C16.6791 37.5745 16.3505 37.6477 16.0195 37.6505L16.0363 39.6504C16.6498 39.6453 17.2643 39.5097 17.8326 39.2418L16.98 37.4327ZM16.0195 37.6505C15.6755 37.6534 15.3328 37.5801 15.02 37.4327L14.1674 39.2418C14.7581 39.5202 15.3986 39.6558 16.0363 39.6504L16.0195 37.6505ZM14.3668 37.1248C10.0511 35.091 6.55231 31.7809 4.3872 27.6996L2.62041 28.6368C4.99415 33.1114 8.81953 36.7216 13.5142 38.934L14.3668 37.1248ZM18.4858 38.934C23.1805 36.7216 27.0058 33.1114 29.3796 28.6368L27.6128 27.6996C25.4477 31.7809 21.9489 35.091 17.6332 37.1248L18.4858 38.934ZM28.4176 5.82736C29.3883 6.13615 30 6.98375 30 7.89218H32C32 6.06221 30.7755 4.47864 29.0239 3.92146L28.4176 5.82736ZM2.97611 3.92146C1.22454 4.47864 0 6.06221 0 7.89218H2C2 6.98375 2.61166 6.13615 3.58237 5.82736L2.97611 3.92146ZM10.3096 20.6374L13.6429 23.8184L15.0237 22.3715L11.6904 19.1905L10.3096 20.6374ZM15.0237 23.8184L23.357 15.8659L21.9763 14.419L13.6429 22.3715L15.0237 23.8184Z" fill="#B26262"/>
</svg>
