<svg width="35" height="35" viewBox="0 0 35 35" fill="none" xmlns="http://www.w3.org/2000/svg">
<path d="M14.5834 7.77783H23.3334V9.72228H14.5834V7.77783Z" fill="black"/>
<path d="M14.5834 11.6667H23.3334V13.6112H14.5834V11.6667Z" fill="black"/>
<path d="M14.5834 15.5557H23.3334V17.5001H14.5834V15.5557Z" fill="black"/>
<path d="M14.5834 19.4443H23.3334V21.3888H14.5834V19.4443Z" fill="black"/>
<path d="M14.5834 23.3333H23.3334V25.2777H14.5834V23.3333Z" fill="black"/>
<path d="M10.6945 7.77783H12.6389V9.72228H10.6945V7.77783Z" fill="black"/>
<path d="M10.6945 11.6667H12.6389V13.6112H10.6945V11.6667Z" fill="black"/>
<path d="M10.6945 15.5557H12.6389V17.5001H10.6945V15.5557Z" fill="black"/>
<path d="M10.6945 19.4443H12.6389V21.3888H10.6945V19.4443Z" fill="black"/>
<path d="M10.6945 23.3333H12.6389V25.2777H10.6945V23.3333Z" fill="black"/>
<path d="M27.2223 1.94434H7.77782C7.26212 1.94434 6.76754 2.1492 6.40289 2.51385C6.03823 2.8785 5.83337 3.37308 5.83337 3.88878V31.111C5.83337 31.6267 6.03823 32.1213 6.40289 32.4859C6.76754 32.8506 7.26212 33.0554 7.77782 33.0554H27.2223C27.738 33.0554 28.2325 32.8506 28.5972 32.4859C28.9618 32.1213 29.1667 31.6267 29.1667 31.111V3.88878C29.1667 3.37308 28.9618 2.8785 28.5972 2.51385C28.2325 2.1492 27.738 1.94434 27.2223 1.94434ZM27.2223 31.111H7.77782V3.88878H27.2223V31.111Z" fill="black"/>
</svg>
