<svg width="40" height="35" viewBox="0 0 40 35" fill="none" xmlns="http://www.w3.org/2000/svg">
<path d="M20 27.25C19.84 27.2516 19.6824 27.2112 19.543 27.1328C19.0391 26.8516 7.34375 20.207 7.34375 11.7812C7.34375 10.3055 7.80808 8.86719 8.67095 7.67001C9.53383 6.47283 10.7515 5.57749 12.1515 5.11082C13.5515 4.64415 15.0629 4.62981 16.4715 5.06983C17.8801 5.50984 19.1146 6.38191 20 7.5625C20.8854 6.38191 22.1199 5.50984 23.5285 5.06983C24.9371 4.62981 26.4485 4.64415 27.8485 5.11082C29.2485 5.57749 30.4662 6.47283 31.329 7.67001C32.1919 8.86719 32.6562 10.3055 32.6562 11.7812C32.6562 15.3672 30.582 19.0469 26.4922 22.7266C24.635 24.3961 22.6129 25.8725 20.457 27.1328C20.3176 27.2112 20.16 27.2516 20 27.25ZM14.375 6.625C13.0075 6.625 11.696 7.16825 10.729 8.13523C9.762 9.10222 9.21875 10.4137 9.21875 11.7812C9.21875 18.25 17.8906 23.9336 20 25.2227C22.1094 23.9336 30.7812 18.25 30.7812 11.7812C30.7823 10.5892 30.3704 9.43369 29.6155 8.51118C28.8606 7.58866 27.8095 6.95619 26.6408 6.72135C25.4722 6.48652 24.2583 6.66384 23.2056 7.22314C22.153 7.78244 21.3266 8.68917 20.8672 9.78906C20.7966 9.96101 20.6764 10.1081 20.522 10.2116C20.3676 10.3151 20.1859 10.3703 20 10.3703C19.8141 10.3703 19.6324 10.3151 19.478 10.2116C19.3236 10.1081 19.2034 9.96101 19.1328 9.78906C18.7426 8.84953 18.082 8.04714 17.2349 7.48379C16.3878 6.92043 15.3923 6.62152 14.375 6.625Z" fill="black"/>
</svg>
