<svg width="59" height="54" viewBox="0 0 59 54" fill="none" xmlns="http://www.w3.org/2000/svg">
<path d="M19.7731 34.3105C19.7731 34.3105 17.2412 43.981 10.8866 42.4495C4.53198 40.9179 2.00009 50.5884 2.00009 50.5884" stroke="#B26262" stroke-width="3" stroke-linecap="round"/>
<path d="M40.5 24.5C34.1998 27.3044 23.9883 26.1792 23.9017 18.4141" stroke="#4DC153" stroke-width="3" stroke-linecap="round"/>
<path d="M24.396 44.5741C26.1229 42.2844 26.4495 37.5926 29.5639 34.1994C33.5766 29.8276 40.5956 26.7816 44.1556 25.0823" stroke="#4DC153" stroke-width="3" stroke-linecap="round"/>
<path d="M44.4084 25.0823C44.0982 23.5137 38.0413 19.305 41.0302 15.7647C42.0051 14.61 44.4073 13.7048 47.6137 12.7717C50.7976 11.8453 54.7813 10.8912 56.9995 9.69409" stroke="#4DC153" stroke-width="3" stroke-linecap="round"/>
<path d="M24.3964 44.5514C21.169 44.7875 13.8843 43.2761 10.5647 35.3411" stroke="#4DC153" stroke-width="3" stroke-linecap="round"/>
<path d="M56.9999 9.69411C56.687 8.62129 56.4466 5.99088 42.1802 2" stroke="#4DC153" stroke-width="3" stroke-linecap="round"/>
</svg>
