<svg width="25" height="25" viewBox="0 0 25 25" fill="none" xmlns="http://www.w3.org/2000/svg">
<g clip-path="url(#clip0_76_363)">
<g clip-path="url(#clip1_76_363)">
<path d="M18.2327 0H6.76726C3.03573 0 0 3.03573 0 6.76726V18.2329C0 21.9642 3.03573 25 6.76726 25H18.2329C21.9642 25 25 21.9642 25 18.2329V6.76726C25 3.03573 21.9642 0 18.2327 0V0ZM12.5 19.3357C8.73068 19.3357 5.66424 16.2693 5.66424 12.5C5.66424 8.73068 8.73068 5.66424 12.5 5.66424C16.2693 5.66424 19.3357 8.73068 19.3357 12.5C19.3357 16.2693 16.2693 19.3357 12.5 19.3357ZM19.4992 7.27633C18.3853 7.27633 17.4793 6.37034 17.4793 5.25645C17.4793 4.14256 18.3853 3.23638 19.4992 3.23638C20.6131 3.23638 21.5192 4.14256 21.5192 5.25645C21.5192 6.37034 20.6131 7.27633 19.4992 7.27633Z" fill="#626262"/>
<path d="M12.5 7.12988C9.53901 7.12988 7.12984 9.53886 7.12984 12.5C7.12984 15.461 9.53901 17.8701 12.5 17.8701C15.4611 17.8701 17.8701 15.461 17.8701 12.5C17.8701 9.53886 15.4611 7.12988 12.5 7.12988Z" fill="#626262"/>
<path d="M19.4992 4.70215C19.1936 4.70215 18.9449 4.95087 18.9449 5.25642C18.9449 5.56198 19.1936 5.8107 19.4992 5.8107C19.8049 5.8107 20.0536 5.56217 20.0536 5.25642C20.0536 4.95068 19.8049 4.70215 19.4992 4.70215Z" fill="#626262"/>
</g>
</g>
<defs>
<clipPath id="clip0_76_363">
<rect width="25" height="25" fill="white"/>
</clipPath>
<clipPath id="clip1_76_363">
<rect width="25" height="25" fill="white"/>
</clipPath>
</defs>
</svg>
