<svg width="25" height="25" viewBox="0 0 25 25" fill="none" xmlns="http://www.w3.org/2000/svg">
<g clip-path="url(#clip0_76_356)">
<path d="M24.8675 18.2498C24.8372 18.1845 24.809 18.1304 24.7828 18.0871C24.349 17.3059 23.5201 16.347 22.2966 15.2102L22.2708 15.1842L22.2578 15.1714L22.2447 15.1583H22.2316C21.6763 14.629 21.3247 14.2731 21.1774 14.0908C20.908 13.7437 20.8476 13.3923 20.9949 13.0363C21.0989 12.7673 21.4897 12.1993 22.1664 11.3314C22.5223 10.8714 22.8042 10.5027 23.0123 10.225C24.5137 8.22905 25.1646 6.95361 24.9649 6.39818L24.8873 6.26838C24.8352 6.19024 24.7007 6.11875 24.4841 6.05356C24.2669 5.9885 23.9893 5.97774 23.6507 6.0211L19.9021 6.04699C19.8414 6.02547 19.7547 6.02748 19.6417 6.05356C19.5288 6.07963 19.4724 6.09272 19.4724 6.09272L19.4072 6.12532L19.3554 6.16448C19.312 6.19037 19.2642 6.23592 19.2121 6.30102C19.1603 6.3659 19.1169 6.44203 19.0823 6.52879C18.6742 7.57879 18.2101 8.55503 17.6894 9.45745C17.3683 9.99555 17.0734 10.4619 16.8041 10.8568C16.5351 11.2515 16.3095 11.5423 16.1274 11.7287C15.9451 11.9153 15.7805 12.0648 15.6327 12.1778C15.4851 12.2907 15.3724 12.3385 15.2944 12.321C15.2162 12.3035 15.1426 12.2862 15.0729 12.2689C14.9515 12.1907 14.8538 12.0845 14.7802 11.95C14.7063 11.8155 14.6565 11.6462 14.6305 11.4423C14.6046 11.2382 14.5892 11.0627 14.5849 10.9151C14.5808 10.7677 14.5827 10.5592 14.5915 10.2903C14.6005 10.0211 14.6046 9.83904 14.6046 9.74357C14.6046 9.41377 14.611 9.05584 14.6239 8.66969C14.637 8.28353 14.6476 7.97757 14.6565 7.75217C14.6654 7.52655 14.6695 7.28783 14.6695 7.03617C14.6695 6.78451 14.6542 6.58715 14.6239 6.4439C14.594 6.30084 14.5481 6.16197 14.4876 6.02734C14.4267 5.89285 14.3376 5.78881 14.2207 5.71496C14.1036 5.64119 13.958 5.58265 13.7847 5.53916C13.3247 5.43507 12.739 5.37877 12.0273 5.37002C10.4134 5.35269 9.37631 5.45691 8.91639 5.68254C8.73417 5.77787 8.56927 5.90812 8.42183 6.07289C8.26559 6.26387 8.24379 6.36809 8.35659 6.38523C8.87732 6.46323 9.24597 6.64984 9.46293 6.94485L9.54112 7.10118C9.60194 7.21398 9.66267 7.41366 9.72344 7.69997C9.78412 7.98628 9.82328 8.303 9.84052 8.64994C9.88383 9.28352 9.88383 9.82587 9.84052 10.277C9.79707 10.7284 9.75604 11.0797 9.71687 11.3314C9.67771 11.5831 9.61917 11.787 9.54112 11.9431C9.46293 12.0993 9.41092 12.1948 9.38484 12.2295C9.3588 12.2641 9.3371 12.2859 9.31987 12.2945C9.20708 12.3377 9.08977 12.3597 8.96837 12.3597C8.84678 12.3597 8.69934 12.2989 8.52582 12.1774C8.35235 12.0558 8.17231 11.8889 7.9857 11.6763C7.7991 11.4636 7.58866 11.1664 7.35427 10.7846C7.12008 10.4028 6.87708 9.9516 6.62542 9.43096L6.4172 9.05338C6.28704 8.81047 6.10924 8.45678 5.88361 7.99262C5.65785 7.52828 5.4583 7.07912 5.28482 6.64523C5.21548 6.46301 5.11131 6.32427 4.97248 6.22881L4.90733 6.18964C4.86402 6.155 4.7945 6.1182 4.69912 6.079C4.60361 6.03983 4.50395 6.01175 4.39973 5.99447L0.833215 6.02037C0.468763 6.02037 0.221479 6.10293 0.0912725 6.26783L0.0391624 6.34584C0.0131301 6.38929 0 6.45868 0 6.55419C0 6.64965 0.0260323 6.76682 0.0781424 6.90556C0.598788 8.12921 1.16498 9.30932 1.77671 10.4461C2.38845 11.5828 2.92004 12.4985 3.37116 13.1923C3.82237 13.8866 4.28228 14.5419 4.75091 15.1578C5.21954 15.774 5.52974 16.1688 5.68151 16.3423C5.83346 16.5161 5.95282 16.646 6.03958 16.7328L6.36505 17.0451C6.57331 17.2534 6.87913 17.5029 7.28265 17.7936C7.68627 18.0844 8.1331 18.3707 8.62338 18.6529C9.11375 18.9347 9.68423 19.1647 10.3351 19.3426C10.9859 19.5206 11.6194 19.592 12.2355 19.5576H13.7325C14.036 19.5313 14.266 19.4359 14.4224 19.2711L14.4742 19.2059C14.509 19.1541 14.5416 19.0736 14.5717 18.9653C14.6021 18.8569 14.6173 18.7374 14.6173 18.6074C14.6084 18.2343 14.6368 17.8981 14.7017 17.5988C14.7666 17.2995 14.8405 17.0739 14.9232 16.9219C15.0059 16.7701 15.0992 16.642 15.203 16.5381C15.307 16.434 15.3811 16.371 15.4246 16.3493C15.4679 16.3275 15.5024 16.3126 15.5284 16.3038C15.7367 16.2344 15.9818 16.3016 16.2641 16.5057C16.5461 16.7096 16.8107 16.9614 17.0582 17.2607C17.3055 17.5602 17.6026 17.8962 17.9497 18.2693C18.2969 18.6425 18.6006 18.9199 18.8608 19.1024L19.121 19.2586C19.2948 19.3628 19.5205 19.4583 19.7982 19.5451C20.0754 19.6318 20.3183 19.6535 20.5269 19.6101L23.859 19.5581C24.1886 19.5581 24.445 19.5036 24.6269 19.3953C24.8092 19.2868 24.9175 19.1673 24.9524 19.0374C24.9872 18.9073 24.9891 18.7596 24.959 18.5946C24.9282 18.43 24.8977 18.3148 24.8675 18.2498Z" fill="#626262"/>
</g>
<defs>
<clipPath id="clip0_76_356">
<rect width="25" height="25" fill="white"/>
</clipPath>
</defs>
</svg>
