<svg width="25" height="25" viewBox="0 0 25 25" fill="none" xmlns="http://www.w3.org/2000/svg">
<path d="M12.5 12.5C11.3541 12.5 10.4166 11.5625 10.4166 10.4167C10.4166 9.27084 11.3541 8.33334 12.5 8.33334C13.6458 8.33334 14.5833 9.27084 14.5833 10.4167C14.5833 11.5625 13.6458 12.5 12.5 12.5ZM18.75 10.625C18.75 6.84376 15.9895 4.16668 12.5 4.16668C9.01038 4.16668 6.24996 6.84376 6.24996 10.625C6.24996 13.0625 8.28121 16.2917 12.5 20.1458C16.7187 16.2917 18.75 13.0625 18.75 10.625ZM12.5 2.08334C16.875 2.08334 20.8333 5.43751 20.8333 10.625C20.8333 14.0833 18.052 18.1771 12.5 22.9167C6.94788 18.1771 4.16663 14.0833 4.16663 10.625C4.16663 5.43751 8.12496 2.08334 12.5 2.08334Z" fill="black"/>
</svg>
