<svg width="249" height="62" viewBox="0 0 249 62" fill="none" xmlns="http://www.w3.org/2000/svg">
<path d="M74.652 24C74.4787 24 74.3313 23.9393 74.21 23.818C74.0887 23.6967 74.028 23.5493 74.028 23.376V6.424C74.028 6.25067 74.0887 6.10333 74.21 5.982C74.3313 5.86067 74.4787 5.8 74.652 5.8H77.07C77.2433 5.8 77.3907 5.86067 77.512 5.982C77.6333 6.10333 77.694 6.25067 77.694 6.424V20.906H85.936C86.1267 20.906 86.2827 20.9667 86.404 21.088C86.5253 21.2093 86.586 21.3653 86.586 21.556V23.376C86.586 23.5493 86.5253 23.6967 86.404 23.818C86.2827 23.9393 86.1267 24 85.936 24H74.652ZM89.812 24C89.6734 24 89.5434 23.948 89.422 23.844C89.318 23.74 89.266 23.61 89.266 23.454C89.266 23.3847 89.2834 23.3067 89.318 23.22L95.584 6.45C95.636 6.27667 95.7314 6.12933 95.87 6.008C96.026 5.86933 96.234 5.8 96.494 5.8H99.328C99.588 5.8 99.7874 5.86933 99.926 6.008C100.065 6.12933 100.169 6.27667 100.238 6.45L106.504 23.22C106.521 23.3067 106.53 23.3847 106.53 23.454C106.53 23.61 106.478 23.74 106.374 23.844C106.27 23.948 106.149 24 106.01 24H103.748C103.505 24 103.323 23.948 103.202 23.844C103.098 23.7227 103.029 23.61 102.994 23.506L101.772 20.334H94.05L92.828 23.506C92.7934 23.61 92.7154 23.7227 92.594 23.844C92.49 23.948 92.3167 24 92.074 24H89.812ZM94.96 17.344H100.862L97.898 9.31L94.96 17.344ZM111.401 24C111.228 24 111.081 23.9393 110.959 23.818C110.838 23.6967 110.777 23.5493 110.777 23.376V6.45C110.777 6.25933 110.838 6.10333 110.959 5.982C111.081 5.86067 111.228 5.8 111.401 5.8H117.745C119.496 5.8 120.935 6.06867 122.061 6.606C123.205 7.14333 124.063 7.94067 124.635 8.998C125.225 10.0553 125.528 11.3467 125.545 12.872C125.58 13.6347 125.597 14.3107 125.597 14.9C125.597 15.4893 125.58 16.1567 125.545 16.902C125.511 18.514 125.216 19.8487 124.661 20.906C124.107 21.946 123.266 22.726 122.139 23.246C121.03 23.7487 119.609 24 117.875 24H111.401ZM114.391 21.01H117.745C118.716 21.01 119.505 20.8713 120.111 20.594C120.718 20.3167 121.16 19.8747 121.437 19.268C121.732 18.644 121.888 17.8293 121.905 16.824C121.923 16.304 121.931 15.8533 121.931 15.472C121.949 15.0733 121.949 14.6833 121.931 14.302C121.931 13.9033 121.923 13.4527 121.905 12.95C121.871 11.5287 121.515 10.48 120.839 9.804C120.163 9.128 119.089 8.79 117.615 8.79H114.391V21.01ZM131.503 24C131.329 24 131.182 23.9393 131.061 23.818C130.939 23.6967 130.879 23.5493 130.879 23.376V6.424C130.879 6.25067 130.939 6.10333 131.061 5.982C131.182 5.86067 131.329 5.8 131.503 5.8H133.947C134.137 5.8 134.285 5.86067 134.389 5.982C134.51 6.10333 134.571 6.25067 134.571 6.424V23.376C134.571 23.5493 134.51 23.6967 134.389 23.818C134.285 23.9393 134.137 24 133.947 24H131.503ZM141.092 24C140.919 24 140.771 23.9393 140.65 23.818C140.529 23.6967 140.468 23.5493 140.468 23.376V6.45C140.468 6.25933 140.529 6.10333 140.65 5.982C140.771 5.86067 140.919 5.8 141.092 5.8H152.532C152.723 5.8 152.879 5.86067 153 5.982C153.121 6.10333 153.182 6.25933 153.182 6.45V8.166C153.182 8.33933 153.121 8.48667 153 8.608C152.879 8.72933 152.723 8.79 152.532 8.79H143.978V13.392H151.96C152.151 13.392 152.307 13.4527 152.428 13.574C152.549 13.678 152.61 13.8253 152.61 14.016V15.628C152.61 15.8187 152.549 15.9747 152.428 16.096C152.307 16.2 152.151 16.252 151.96 16.252H143.978V21.01H152.74C152.931 21.01 153.087 21.0707 153.208 21.192C153.329 21.3133 153.39 21.4693 153.39 21.66V23.376C153.39 23.5493 153.329 23.6967 153.208 23.818C153.087 23.9393 152.931 24 152.74 24H141.092ZM164.78 24.26C163.168 24.26 161.816 24.026 160.724 23.558C159.649 23.0727 158.826 22.4487 158.254 21.686C157.699 20.906 157.405 20.0913 157.37 19.242C157.37 19.086 157.422 18.956 157.526 18.852C157.63 18.748 157.76 18.696 157.916 18.696H160.23C160.455 18.696 160.62 18.748 160.724 18.852C160.845 18.9387 160.949 19.0513 161.036 19.19C161.14 19.5193 161.339 19.8487 161.634 20.178C161.929 20.49 162.327 20.75 162.83 20.958C163.35 21.166 164 21.27 164.78 21.27C166.028 21.27 166.955 21.062 167.562 20.646C168.186 20.23 168.498 19.6667 168.498 18.956C168.498 18.4533 168.333 18.0547 168.004 17.76C167.675 17.448 167.163 17.1707 166.47 16.928C165.794 16.668 164.893 16.3993 163.766 16.122C162.466 15.81 161.374 15.4373 160.49 15.004C159.623 14.5533 158.965 13.99 158.514 13.314C158.081 12.638 157.864 11.78 157.864 10.74C157.864 9.73467 158.133 8.842 158.67 8.062C159.225 7.282 160.005 6.66667 161.01 6.216C162.033 5.76533 163.246 5.54 164.65 5.54C165.777 5.54 166.773 5.696 167.64 6.008C168.507 6.30267 169.226 6.70133 169.798 7.204C170.37 7.68933 170.803 8.218 171.098 8.79C171.41 9.34467 171.575 9.89067 171.592 10.428C171.592 10.5667 171.54 10.6967 171.436 10.818C171.349 10.922 171.219 10.974 171.046 10.974H168.628C168.489 10.974 168.351 10.9393 168.212 10.87C168.073 10.8007 167.961 10.6707 167.874 10.48C167.77 9.94267 167.432 9.48333 166.86 9.102C166.288 8.72067 165.551 8.53 164.65 8.53C163.714 8.53 162.96 8.70333 162.388 9.05C161.816 9.39667 161.53 9.934 161.53 10.662C161.53 11.1473 161.669 11.5547 161.946 11.884C162.241 12.196 162.7 12.4733 163.324 12.716C163.965 12.9587 164.806 13.2187 165.846 13.496C167.319 13.8253 168.524 14.2067 169.46 14.64C170.396 15.0733 171.081 15.628 171.514 16.304C171.947 16.9627 172.164 17.8033 172.164 18.826C172.164 19.97 171.852 20.9493 171.228 21.764C170.621 22.5613 169.763 23.1767 168.654 23.61C167.545 24.0433 166.253 24.26 164.78 24.26ZM74.652 55C74.4787 55 74.3313 54.948 74.21 54.844C74.0887 54.7227 74.028 54.5667 74.028 54.376V37.45C74.028 37.2593 74.0887 37.1033 74.21 36.982C74.3313 36.8607 74.4787 36.8 74.652 36.8H77.018C77.2087 36.8 77.356 36.8607 77.46 36.982C77.5813 37.1033 77.642 37.2593 77.642 37.45V44.158H85.312V37.45C85.312 37.2593 85.3727 37.1033 85.494 36.982C85.6153 36.8607 85.7627 36.8 85.936 36.8H88.276C88.4667 36.8 88.6227 36.8607 88.744 36.982C88.8653 37.1033 88.926 37.2593 88.926 37.45V54.376C88.926 54.5493 88.8653 54.6967 88.744 54.818C88.6227 54.9393 88.4667 55 88.276 55H85.936C85.7627 55 85.6153 54.9393 85.494 54.818C85.3727 54.6967 85.312 54.5493 85.312 54.376V47.408H77.642V54.376C77.642 54.5493 77.5813 54.6967 77.46 54.818C77.356 54.9393 77.2087 55 77.018 55H74.652ZM93.6714 55C93.5327 55 93.4027 54.948 93.2814 54.844C93.1774 54.74 93.1254 54.61 93.1254 54.454C93.1254 54.3847 93.1427 54.3067 93.1774 54.22L99.4434 37.45C99.4954 37.2767 99.5907 37.1293 99.7294 37.008C99.8854 36.8693 100.093 36.8 100.353 36.8H103.187C103.447 36.8 103.647 36.8693 103.785 37.008C103.924 37.1293 104.028 37.2767 104.097 37.45L110.363 54.22C110.381 54.3067 110.389 54.3847 110.389 54.454C110.389 54.61 110.337 54.74 110.233 54.844C110.129 54.948 110.008 55 109.869 55H107.607C107.365 55 107.183 54.948 107.061 54.844C106.957 54.7227 106.888 54.61 106.853 54.506L105.631 51.334H97.9094L96.6874 54.506C96.6527 54.61 96.5747 54.7227 96.4534 54.844C96.3494 54.948 96.1761 55 95.9334 55H93.6714ZM98.8194 48.344H104.721L101.757 40.31L98.8194 48.344ZM115.261 55C115.087 55 114.94 54.9393 114.819 54.818C114.697 54.6967 114.637 54.5493 114.637 54.376V37.45C114.637 37.2593 114.697 37.1033 114.819 36.982C114.94 36.8607 115.087 36.8 115.261 36.8H122.229C123.581 36.8 124.759 37.0167 125.765 37.45C126.77 37.866 127.55 38.5073 128.105 39.374C128.659 40.2233 128.937 41.2893 128.937 42.572C128.937 43.872 128.659 44.9467 128.105 45.796C127.55 46.628 126.77 47.252 125.765 47.668C124.759 48.084 123.581 48.292 122.229 48.292H118.355V54.376C118.355 54.5493 118.294 54.6967 118.173 54.818C118.069 54.9393 117.921 55 117.731 55H115.261ZM118.303 45.406H122.099C123.104 45.406 123.875 45.172 124.413 44.704C124.95 44.2187 125.219 43.508 125.219 42.572C125.219 41.7053 124.967 41.012 124.465 40.492C123.962 39.9547 123.173 39.686 122.099 39.686H118.303V45.406ZM134.219 55C134.046 55 133.899 54.9393 133.777 54.818C133.656 54.6967 133.595 54.5493 133.595 54.376V37.45C133.595 37.2593 133.656 37.1033 133.777 36.982C133.899 36.8607 134.046 36.8 134.219 36.8H141.187C142.539 36.8 143.718 37.0167 144.723 37.45C145.729 37.866 146.509 38.5073 147.063 39.374C147.618 40.2233 147.895 41.2893 147.895 42.572C147.895 43.872 147.618 44.9467 147.063 45.796C146.509 46.628 145.729 47.252 144.723 47.668C143.718 48.084 142.539 48.292 141.187 48.292H137.313V54.376C137.313 54.5493 137.253 54.6967 137.131 54.818C137.027 54.9393 136.88 55 136.689 55H134.219ZM137.261 45.406H141.057C142.063 45.406 142.834 45.172 143.371 44.704C143.909 44.2187 144.177 43.508 144.177 42.572C144.177 41.7053 143.926 41.012 143.423 40.492C142.921 39.9547 142.132 39.686 141.057 39.686H137.261V45.406ZM153.178 55C153.005 55 152.857 54.9393 152.736 54.818C152.615 54.6967 152.554 54.5493 152.554 54.376V37.424C152.554 37.2507 152.615 37.1033 152.736 36.982C152.857 36.8607 153.005 36.8 153.178 36.8H155.622C155.813 36.8 155.96 36.8607 156.064 36.982C156.185 37.1033 156.246 37.2507 156.246 37.424V54.376C156.246 54.5493 156.185 54.6967 156.064 54.818C155.96 54.9393 155.813 55 155.622 55H153.178ZM162.768 55C162.594 55 162.447 54.9393 162.326 54.818C162.204 54.6967 162.144 54.5493 162.144 54.376V37.45C162.144 37.2593 162.204 37.1033 162.326 36.982C162.447 36.8607 162.594 36.8 162.768 36.8H164.77C165.012 36.8 165.186 36.8607 165.29 36.982C165.411 37.086 165.489 37.164 165.524 37.216L173.012 48.864V37.45C173.012 37.2593 173.064 37.1033 173.168 36.982C173.289 36.8607 173.445 36.8 173.636 36.8H175.82C176.01 36.8 176.166 36.8607 176.288 36.982C176.409 37.1033 176.47 37.2593 176.47 37.45V54.35C176.47 54.5407 176.409 54.6967 176.288 54.818C176.166 54.9393 176.019 55 175.846 55H173.818C173.575 55 173.402 54.9393 173.298 54.818C173.194 54.6967 173.116 54.6187 173.064 54.584L165.602 43.196V54.376C165.602 54.5493 165.541 54.6967 165.42 54.818C165.298 54.9393 165.142 55 164.952 55H162.768ZM182.97 55C182.797 55 182.65 54.9393 182.528 54.818C182.407 54.6967 182.346 54.5493 182.346 54.376V37.45C182.346 37.2593 182.407 37.1033 182.528 36.982C182.65 36.8607 182.797 36.8 182.97 36.8H194.41C194.601 36.8 194.757 36.8607 194.878 36.982C195 37.1033 195.06 37.2593 195.06 37.45V39.166C195.06 39.3393 195 39.4867 194.878 39.608C194.757 39.7293 194.601 39.79 194.41 39.79H185.856V44.392H193.838C194.029 44.392 194.185 44.4527 194.306 44.574C194.428 44.678 194.488 44.8253 194.488 45.016V46.628C194.488 46.8187 194.428 46.9747 194.306 47.096C194.185 47.2 194.029 47.252 193.838 47.252H185.856V52.01H194.618C194.809 52.01 194.965 52.0707 195.086 52.192C195.208 52.3133 195.268 52.4693 195.268 52.66V54.376C195.268 54.5493 195.208 54.6967 195.086 54.818C194.965 54.9393 194.809 55 194.618 55H182.97ZM206.658 55.26C205.046 55.26 203.694 55.026 202.602 54.558C201.528 54.0727 200.704 53.4487 200.132 52.686C199.578 51.906 199.283 51.0913 199.248 50.242C199.248 50.086 199.3 49.956 199.404 49.852C199.508 49.748 199.638 49.696 199.794 49.696H202.108C202.334 49.696 202.498 49.748 202.602 49.852C202.724 49.9387 202.828 50.0513 202.914 50.19C203.018 50.5193 203.218 50.8487 203.512 51.178C203.807 51.49 204.206 51.75 204.708 51.958C205.228 52.166 205.878 52.27 206.658 52.27C207.906 52.27 208.834 52.062 209.44 51.646C210.064 51.23 210.376 50.6667 210.376 49.956C210.376 49.4533 210.212 49.0547 209.882 48.76C209.553 48.448 209.042 48.1707 208.348 47.928C207.672 47.668 206.771 47.3993 205.644 47.122C204.344 46.81 203.252 46.4373 202.368 46.004C201.502 45.5533 200.843 44.99 200.392 44.314C199.959 43.638 199.742 42.78 199.742 41.74C199.742 40.7347 200.011 39.842 200.548 39.062C201.103 38.282 201.883 37.6667 202.888 37.216C203.911 36.7653 205.124 36.54 206.528 36.54C207.655 36.54 208.652 36.696 209.518 37.008C210.385 37.3027 211.104 37.7013 211.676 38.204C212.248 38.6893 212.682 39.218 212.976 39.79C213.288 40.3447 213.453 40.8907 213.47 41.428C213.47 41.5667 213.418 41.6967 213.314 41.818C213.228 41.922 213.098 41.974 212.924 41.974H210.506C210.368 41.974 210.229 41.9393 210.09 41.87C209.952 41.8007 209.839 41.6707 209.752 41.48C209.648 40.9427 209.31 40.4833 208.738 40.102C208.166 39.7207 207.43 39.53 206.528 39.53C205.592 39.53 204.838 39.7033 204.266 40.05C203.694 40.3967 203.408 40.934 203.408 41.662C203.408 42.1473 203.547 42.5547 203.824 42.884C204.119 43.196 204.578 43.4733 205.202 43.716C205.844 43.9587 206.684 44.2187 207.724 44.496C209.198 44.8253 210.402 45.2067 211.338 45.64C212.274 46.0733 212.959 46.628 213.392 47.304C213.826 47.9627 214.042 48.8033 214.042 49.826C214.042 50.97 213.73 51.9493 213.106 52.764C212.5 53.5613 211.642 54.1767 210.532 54.61C209.423 55.0433 208.132 55.26 206.658 55.26ZM225.16 55.26C223.548 55.26 222.196 55.026 221.104 54.558C220.029 54.0727 219.206 53.4487 218.634 52.686C218.079 51.906 217.785 51.0913 217.75 50.242C217.75 50.086 217.802 49.956 217.906 49.852C218.01 49.748 218.14 49.696 218.296 49.696H220.61C220.835 49.696 221 49.748 221.104 49.852C221.225 49.9387 221.329 50.0513 221.416 50.19C221.52 50.5193 221.719 50.8487 222.014 51.178C222.309 51.49 222.707 51.75 223.21 51.958C223.73 52.166 224.38 52.27 225.16 52.27C226.408 52.27 227.335 52.062 227.942 51.646C228.566 51.23 228.878 50.6667 228.878 49.956C228.878 49.4533 228.713 49.0547 228.384 48.76C228.055 48.448 227.543 48.1707 226.85 47.928C226.174 47.668 225.273 47.3993 224.146 47.122C222.846 46.81 221.754 46.4373 220.87 46.004C220.003 45.5533 219.345 44.99 218.894 44.314C218.461 43.638 218.244 42.78 218.244 41.74C218.244 40.7347 218.513 39.842 219.05 39.062C219.605 38.282 220.385 37.6667 221.39 37.216C222.413 36.7653 223.626 36.54 225.03 36.54C226.157 36.54 227.153 36.696 228.02 37.008C228.887 37.3027 229.606 37.7013 230.178 38.204C230.75 38.6893 231.183 39.218 231.478 39.79C231.79 40.3447 231.955 40.8907 231.972 41.428C231.972 41.5667 231.92 41.6967 231.816 41.818C231.729 41.922 231.599 41.974 231.426 41.974H229.008C228.869 41.974 228.731 41.9393 228.592 41.87C228.453 41.8007 228.341 41.6707 228.254 41.48C228.15 40.9427 227.812 40.4833 227.24 40.102C226.668 39.7207 225.931 39.53 225.03 39.53C224.094 39.53 223.34 39.7033 222.768 40.05C222.196 40.3967 221.91 40.934 221.91 41.662C221.91 42.1473 222.049 42.5547 222.326 42.884C222.621 43.196 223.08 43.4733 223.704 43.716C224.345 43.9587 225.186 44.2187 226.226 44.496C227.699 44.8253 228.904 45.2067 229.84 45.64C230.776 46.0733 231.461 46.628 231.894 47.304C232.327 47.9627 232.544 48.8033 232.544 49.826C232.544 50.97 232.232 51.9493 231.608 52.764C231.001 53.5613 230.143 54.1767 229.034 54.61C227.925 55.0433 226.633 55.26 225.16 55.26Z" fill="#FF9494"/>
<path d="M19.7731 37.3105C19.7731 37.3105 17.2412 46.981 10.8866 45.4495C4.53198 43.9179 2.00009 53.5884 2.00009 53.5884" stroke="#B26262" stroke-width="3" stroke-linecap="round"/>
<path d="M40.5 27.5C34.1998 30.3044 23.9883 29.1792 23.9017 21.4141" stroke="#4DC153" stroke-width="3" stroke-linecap="round"/>
<path d="M24.396 47.5741C26.1229 45.2844 26.4495 40.5926 29.5639 37.1994C33.5766 32.8276 40.5956 29.7816 44.1556 28.0823" stroke="#4DC153" stroke-width="3" stroke-linecap="round"/>
<path d="M44.4084 28.0823C44.0982 26.5137 38.0413 22.305 41.0302 18.7647C42.0051 17.61 44.4073 16.7048 47.6137 15.7717C50.7976 14.8453 54.7813 13.8912 56.9995 12.6941" stroke="#4DC153" stroke-width="3" stroke-linecap="round"/>
<path d="M24.3964 47.5514C21.169 47.7875 13.8843 46.2761 10.5647 38.3411" stroke="#4DC153" stroke-width="3" stroke-linecap="round"/>
<path d="M56.9999 12.6941C56.687 11.6213 56.4466 8.99088 42.1802 5" stroke="#4DC153" stroke-width="3" stroke-linecap="round"/>
</svg>
