<svg width="140" height="140" viewBox="0 0 140 140" fill="none" xmlns="http://www.w3.org/2000/svg">
<path d="M35.498 96.5981C44.5502 102.937 55.7496 105.419 66.6324 103.5C77.5152 101.582 87.19 95.418 93.5284 86.3658C99.8668 77.3136 102.35 66.1143 100.431 55.2315C98.5118 44.3487 92.3483 34.6739 83.2961 28.3355" stroke="#FF9494" stroke-width="2.91667" stroke-linecap="round" stroke-linejoin="round"/>
<path d="M83.2961 28.3355C76.9577 37.3877 74.4748 48.587 76.3938 59.4698C78.3127 70.3526 84.4762 80.0274 93.5284 86.3658C89.0462 83.2274 83.9897 81.0025 78.6477 79.8182C73.3057 78.6339 67.7827 78.5133 62.394 79.4635C57.0054 80.4137 51.8567 82.4159 47.2419 85.3559C42.6271 88.2958 38.6365 92.116 35.498 96.5981" stroke="#FF9494" stroke-width="2.91667" stroke-linecap="round" stroke-linejoin="round"/>
<path d="M75.0757 58.2364C70.4923 54.6737 65.1952 52.1401 59.5448 50.8081C53.8945 49.4761 48.0235 49.377 42.3314 50.5174C43.2065 56.2563 45.3077 61.7394 48.4919 66.5934C51.6761 71.4474 55.8686 75.5585 60.7841 78.647" stroke="#FF9494" stroke-width="2.91667" stroke-linecap="round" stroke-linejoin="round"/>
</svg>
