<svg width="50" height="50" viewBox="0 0 50 50" fill="none" xmlns="http://www.w3.org/2000/svg">
<path d="M31.25 4.16669C25.7247 4.16669 20.4256 6.36162 16.5186 10.2686C12.6116 14.1756 10.4167 19.4747 10.4167 25C10.4167 30.5254 12.6116 35.8244 16.5186 39.7314C20.4256 43.6384 25.7247 45.8334 31.25 45.8334" stroke="white" stroke-width="2.91667" stroke-linecap="round" stroke-linejoin="round"/>
<path d="M31.25 45.8334C31.25 40.308 29.0551 35.009 25.1481 31.102C21.241 27.195 15.942 25 10.4167 25C13.1525 25 15.8616 24.4612 18.3892 23.4142C20.9169 22.3672 23.2135 20.8326 25.1481 18.8981C27.0826 16.9635 28.6172 14.6669 29.6642 12.1393C30.7111 9.61164 31.25 6.90256 31.25 4.16669" stroke="white" stroke-width="2.91667" stroke-linecap="round" stroke-linejoin="round"/>
<path d="M26.0417 31.2292C28.9407 31.374 31.8368 30.8925 34.5331 29.8176C37.2293 28.7427 39.6624 27.0996 41.6667 25C39.6624 22.9005 37.2293 21.2574 34.5331 20.1825C31.8368 19.1076 28.9407 18.6261 26.0417 18.7709" stroke="white" stroke-width="2.91667" stroke-linecap="round" stroke-linejoin="round"/>
</svg>
