<svg width="50" height="50" viewBox="0 0 50 50" fill="none" xmlns="http://www.w3.org/2000/svg">
<path d="M18.75 45.8333C24.2753 45.8333 29.5744 43.6384 33.4814 39.7314C37.3884 35.8244 39.5833 30.5253 39.5833 25C39.5833 19.4746 37.3884 14.1756 33.4814 10.2686C29.5744 6.36158 24.2753 4.16664 18.75 4.16664" stroke="white" stroke-width="2.91667" stroke-linecap="round" stroke-linejoin="round"/>
<path d="M18.75 4.16664C18.75 9.69199 20.9449 14.991 24.8519 18.898C28.759 22.805 34.058 25 39.5833 25C36.8475 25 34.1384 25.5388 31.6108 26.5858C29.0831 27.6328 26.7865 29.1674 24.8519 31.1019C22.9174 33.0365 21.3828 35.3331 20.3358 37.8607C19.2889 40.3884 18.75 43.0974 18.75 45.8333" stroke="white" stroke-width="2.91667" stroke-linecap="round" stroke-linejoin="round"/>
<path d="M23.9583 18.7708C21.0593 18.626 18.1631 19.1075 15.4669 20.1824C12.7706 21.2573 10.3376 22.9004 8.33331 25C10.3376 27.0995 12.7706 28.7426 15.4669 29.8175C18.1631 30.8924 21.0593 31.3739 23.9583 31.2291" stroke="white" stroke-width="2.91667" stroke-linecap="round" stroke-linejoin="round"/>
</svg>
